<svg data-v-423bf9ae="" xmlns="http://www.w3.org/2000/svg" viewBox="0 0 531 90" class="iconLeft"><!----><!----><!----><g data-v-423bf9ae="" id="93833d6a-894e-421e-84a8-58add7869eae" fill="#ffffff" transform="matrix(5.870841881720861,0,0,5.870841881720861,121.90033147343644,-3.7279854617846553)"><path d="M4.69 9.24L7.76 13.01C7.90 13.17 7.94 13.23 8.09 13.23L8.92 13.23C9.06 13.23 9.13 13.17 9.02 13.01L5.32 8.36L9.02 3.65C9.14 3.49 9.06 3.43 8.92 3.43L8.11 3.43C7.97 3.43 7.91 3.47 7.77 3.65L4.69 7.46L1.61 3.65C1.50 3.49 1.43 3.43 1.27 3.43L0.46 3.43C0.31 3.43 0.25 3.49 0.36 3.65L4.07 8.36L0.38 13.01C0.27 13.17 0.35 13.23 0.49 13.23L1.30 13.23C1.46 13.23 1.51 13.17 1.64 13.01ZM14.35 13.41C16.63 13.41 18.31 11.98 18.31 9.20L18.31 3.65C18.31 3.49 18.27 3.43 18.10 3.43L17.43 3.43C17.26 3.43 17.21 3.49 17.21 3.65L17.21 9.13C17.21 11.45 16.03 12.43 14.35 12.43C12.67 12.43 11.49 11.45 11.49 9.13L11.49 3.65C11.49 3.49 11.44 3.43 11.27 3.43L10.61 3.43C10.44 3.43 10.39 3.47 10.39 3.65L10.39 9.20C10.39 11.98 12.07 13.41 14.35 13.41ZM25.05 4.23C26.18 4.23 27.30 4.80 27.94 5.45C28.08 5.57 28.17 5.56 28.27 5.45L28.69 4.98C28.80 4.86 28.84 4.80 28.71 4.68C27.78 3.79 26.40 3.25 25.05 3.25C22.29 3.25 20.06 5.54 20.06 8.33C20.06 11.12 22.29 13.41 25.05 13.41C26.42 13.41 27.89 12.85 28.81 11.94C28.97 11.79 29.04 11.66 29.04 11.44L29.04 8.34C29.04 8.19 28.99 8.12 28.83 8.12L25.26 8.12C25.09 8.12 25.03 8.18 25.03 8.34L25.03 8.88C25.03 9.04 25.09 9.09 25.26 9.09L27.93 9.09L27.93 11.35C27.26 11.96 26.28 12.43 25.05 12.43C22.86 12.43 21.18 10.43 21.18 8.33C21.18 6.22 22.86 4.23 25.05 4.23ZM34.94 5.11L37.00 9.67L32.87 9.67L34.93 5.11ZM35.13 3.39C35.07 3.28 35.03 3.19 34.96 3.19L34.92 3.19C34.83 3.19 34.80 3.28 34.73 3.39L30.17 13.01C30.11 13.13 30.17 13.23 30.30 13.23L31.11 13.23C31.26 13.23 31.32 13.17 31.40 13.01L32.49 10.63L37.38 10.63L38.47 13.01C38.56 13.17 38.61 13.23 38.75 13.23L39.56 13.23C39.70 13.23 39.76 13.13 39.70 13.01ZM45.05 5.11L47.11 9.67L42.98 9.67L45.04 5.11ZM45.23 3.39C45.18 3.28 45.14 3.19 45.07 3.19L45.02 3.19C44.94 3.19 44.91 3.28 44.84 3.39L40.28 13.01C40.22 13.13 40.28 13.23 40.40 13.23L41.22 13.23C41.37 13.23 41.43 13.17 41.51 13.01L42.60 10.63L47.49 10.63L48.58 13.01C48.66 13.17 48.72 13.23 48.86 13.23L49.67 13.23C49.81 13.23 49.87 13.13 49.81 13.01ZM51.62 3.43C51.45 3.43 51.39 3.49 51.39 3.65L51.39 13.01C51.39 13.17 51.46 13.23 51.62 13.23L55.05 13.23C57.81 13.23 59.92 11.12 59.92 8.33C59.92 5.54 57.81 3.43 55.05 3.43ZM55.03 4.38C57.32 4.38 58.80 6.22 58.80 8.33C58.80 10.43 57.32 12.28 55.03 12.28L52.50 12.28L52.50 4.38ZM65.63 13.41C67.91 13.41 69.59 11.98 69.59 9.20L69.59 3.65C69.59 3.49 69.55 3.43 69.38 3.43L68.71 3.43C68.54 3.43 68.49 3.49 68.49 3.65L68.49 9.13C68.49 11.45 67.31 12.43 65.63 12.43C63.95 12.43 62.78 11.45 62.78 9.13L62.78 3.65C62.78 3.49 62.72 3.43 62.55 3.43L61.89 3.43C61.73 3.43 61.67 3.47 61.67 3.65L61.67 9.20C61.67 11.98 63.35 13.41 65.63 13.41Z"></path></g><defs data-v-423bf9ae=""><linearGradient data-v-423bf9ae="" gradientTransform="rotate(25)" id="f38a4ddf-5916-416a-91ca-1634cead1cb2" x1="0%" y1="0%" x2="100%" y2="0%"><stop data-v-423bf9ae="" offset="0%" style="stop-color: rgb(0, 21, 214); stop-opacity: 1;"></stop><stop data-v-423bf9ae="" offset="100%" style="stop-color: rgb(9, 137, 251); stop-opacity: 1;"></stop></linearGradient></defs><g data-v-423bf9ae="" id="81ee3cdf-beb3-4f18-b638-2cf8a014cd54" transform="matrix(1.2682349738654888,0,0,1.2682349738654888,-4.927009807838424,-21.62599322749037)" stroke="none" fill="url(#f38a4ddf-5916-416a-91ca-1634cead1cb2)"><path d="M34.382 21.787c-3.265 1.874-5.569 4.917-6.68 8.438h13.711l2.797-1.245c-2.13-3.813-5.738-6.46-9.828-7.193zM48.371 27.127l4.646-2.069c-2.953-3.183-6.968-5.031-11.076-5.157 2.659 1.762 4.881 4.232 6.43 7.226zM19.305 30.225h5.728c.842-3.256 2.542-6.209 4.97-8.484-4.623.741-8.665 3.926-10.698 8.484z"></path><path d="M85.664 64.474l-19.402-43.58a1.582 1.582 0 0 0-2.089-.802l-8.756 3.898c-4.516-5.369-11.509-7.872-18.038-6.261a17.957 17.957 0 0 1 4.562 2.172c4.108.126 8.123 1.974 11.076 5.157l-4.646 2.069c.507.98.949 2.012 1.304 3.098h8.845a2.585 2.585 0 0 1 2.582 2.583v44.333l23.761-10.579a1.58 1.58 0 0 0 .801-2.088z"></path><path d="M41.414 30.225h3.429a15.288 15.288 0 0 0-.632-1.245l-2.797 1.245zM34.382 21.787a13.008 13.008 0 0 0-2.307-.213c-.7 0-1.392.058-2.072.167-2.428 2.275-4.128 5.228-4.97 8.484h2.669c1.111-3.522 3.415-6.565 6.68-8.438zM34.456 87.272a1.581 1.581 0 0 0 2.088.802l11.188-4.981H32.595l1.861 4.179z"></path><path d="M58.52 31.225h-9.584a19.532 19.532 0 0 0-1.493-3.684c-1.707-3.241-4.275-5.887-7.379-7.579a16.738 16.738 0 0 0-4.483-1.665 16.51 16.51 0 0 0-3.505-.389c-7.932 0-14.641 5.605-16.861 13.317H5.629c-.874 0-1.581.708-1.581 1.583v47.704c0 .874.708 1.582 1.581 1.582H58.52c.875 0 1.582-.708 1.582-1.582V32.807c0-.874-.707-1.582-1.582-1.582zm-19.352 0H17.84c2.044-5.988 7.295-10.313 13.525-10.621.237-.012.471-.03.71-.03 1.285 0 2.53.177 3.721.499 3.967 1.073 7.304 3.821 9.331 7.5.463.841.865 1.724 1.183 2.653h-7.142z"></path></g><!----></svg>